<svg xmlns="http://www.w3.org/2000/svg" version="1.1" xmlns:xlink="http://www.w3.org/1999/xlink" xmlns:svgjs="http://svgjs.dev/svgjs" width="1000" height="212" viewBox="0 0 1000 212"><g transform="matrix(1,0,0,1,-0.6060606060606233,-0.3703267504695873)"><svg viewBox="0 0 396 84" data-background-color="#ffffff" preserveAspectRatio="xMidYMid meet" height="212" width="1000" xmlns="http://www.w3.org/2000/svg" xmlns:xlink="http://www.w3.org/1999/xlink"><g id="tight-bounds" transform="matrix(1,0,0,1,0.2400000000000091,0.14673324075209848)"><svg viewBox="0 0 395.52 83.7063839978572" height="83.7063839978572" width="395.52"><g><svg viewBox="0 0 530.4232151745884 112.25679948114416" height="83.7063839978572" width="395.52"><g transform="matrix(1,0,0,1,134.90321517458852,32.14627566459191)"><svg viewBox="0 0 395.52 47.96424815196033" height="47.96424815196033" width="395.52"><g id="textblocktransform"><svg viewBox="0 0 395.52 47.96424815196033" height="47.96424815196033" width="395.52" id="textblock"><g><svg viewBox="0 0 395.52 47.96424815196033" height="47.96424815196033" width="395.52"><g transform="matrix(1,0,0,1,0,0)"><svg width="395.52" viewBox="0.59 -30.98 260.89000000000004 31.64" height="47.96424815196033" data-palette-color="#d29000"><g class="wordmark-text-0" data-fill-palette-color="primary" id="text-0"><path d="M0.59 0L12.3 0 12.62-1.95 8.15-2.78 9.69-23.61 18.07-0.76 21.19-1.22 30.49-24.51 31.86-2.95 27.81-1.81 27.54 0 40.63 0 40.87-1.95 36.43-2.78 35.16-27.59 39.26-28.52 39.5-30.37 29.86-30.37 28.13-26.44 20.63-7.64 14.23-25.63 12.33-30.37 2.49-30.37 2.25-28.52 6.71-27.49 4.93-2.95 0.85-1.81 0.59 0ZM45.65-27.49L45.65-11.45Q45.65-4.49 49.03-1.92 52.41 0.66 57.64 0.66L57.64 0.66Q63.91 0.66 66.87-2.61 69.82-5.88 69.87-12.57L69.87-12.57 69.99-27.59 74.05-28.52 74.31-30.37 62.64-30.37 62.4-28.52 66.87-27.49 66.79-11.77Q66.77-7.1 64.72-4.83 62.67-2.56 58.86-2.56L58.86-2.56Q54.93-2.56 52.65-4.99 50.36-7.42 50.36-12.45L50.36-12.45 50.36-27.59 54.49-28.52 54.71-30.37 41.48-30.37 41.16-28.52 45.65-27.49ZM83.86 0.59Q86.66 0.59 89.17-0.57 91.67-1.73 93.2-3.86 94.72-5.98 94.72-8.72L94.72-8.72Q94.72-10.67 93.72-12.11 92.72-13.55 91.28-14.54 89.84-15.53 87.4-16.82L87.4-16.82Q85.05-18.09 83.7-18.99 82.34-19.9 81.4-21.22 80.46-22.53 80.46-24.29L80.46-24.29Q80.46-26.59 81.71-27.76 82.95-28.93 84.91-28.93L84.91-28.93Q85.81-28.93 86.69-28.55 87.57-28.17 88.19-27.62 88.81-27.08 89.06-26.61L89.06-26.61 89.67-21.95 92.08-21.66Q92.16-22.71 92.35-25.05 92.55-27.39 92.62-28.54L92.62-28.54Q89.69-30.98 85.74-30.98L85.74-30.98Q83.27-30.98 81.1-29.96 78.93-28.93 77.58-26.98 76.24-25.02 76.24-22.36L76.24-22.36Q76.24-20.07 77.35-18.38 78.46-16.7 80.04-15.61 81.61-14.53 84.17-13.16L84.17-13.16Q86.25-12.04 87.43-11.25 88.62-10.47 89.42-9.41 90.23-8.35 90.23-7.01L90.23-7.01Q90.23-5.3 89.36-4.15 88.5-3 87.17-2.44 85.83-1.88 84.44-1.88L84.44-1.88Q82.83-1.88 81.48-2.59 80.12-3.3 79.41-4.32L79.41-4.32 78.46-8.91 75.97-9.25 75.65-2.25Q76.9-1.03 79.11-0.22 81.32 0.59 83.86 0.59L83.86 0.59ZM96.33-28.52L100.77-27.49 100.77-2.95 96.7-1.81 96.5 0 121.28 0 122.01-7.64 119.99-7.96 117.6-2.34 105.51-2.34 105.51-14.23 112.2-14.23 113.03-9.96 115.1-10.28 115.93-19.78 113.62-19.43 112.59-16.5 105.51-16.5 105.51-28.13 117.01-28.13 118.01-22.88 120.13-22.56 120.89-30.37 96.6-30.37 96.33-28.52ZM135.95 0L136.2-2.03 131.61-3.08 131.61-13.11 135.85-13.11 139.74-6.18Q141.49-3.03 143.61-1.26 145.72 0.51 148.43 0.51L148.43 0.51Q149.97 0.51 151.36 0.02L151.36 0.02 151.72-1.64 150.92-1.88Q149.45-2.32 148.4-3.09 147.35-3.86 146.43-4.98 145.5-6.1 143.76-8.52L143.76-8.52 139.37-14.6 139.37-14.62Q141.59-15.41 143.17-16.77 144.74-18.14 145.56-19.78 146.38-21.41 146.38-23.02L146.38-23.02Q146.38-27.08 143.17-28.83 139.96-30.59 134.12-30.59L134.12-30.59Q131.68-30.59 129.02-30.3 126.36-30 122.99-29.47L122.99-29.47 122.74-27.59 126.92-26.86 126.92-2.95 122.84-1.81 122.57 0 135.95 0ZM131.61-28.42Q131.83-28.44 132.64-28.49 133.46-28.54 134.54-28.54L134.54-28.54Q136.66-28.54 138.19-27.66 139.71-26.78 140.52-25.22 141.32-23.66 141.32-21.66L141.32-21.66Q141.32-19.24 139.91-17.63 138.49-16.02 136.44-15.33L136.44-15.33 131.61-15.33 131.61-28.42ZM152.18-28.52L156.63-27.49 156.63-2.95 152.55-1.81 152.36 0 177.14 0 177.87-7.64 175.84-7.96 173.45-2.34 161.36-2.34 161.36-14.23 168.05-14.23 168.88-9.96 170.96-10.28 171.79-19.78 169.47-19.43 168.44-16.5 161.36-16.5 161.36-28.13 172.86-28.13 173.86-22.88 175.99-22.56 176.75-30.37 152.45-30.37 152.18-28.52ZM176.57 0L188 0 188.27-1.95 183.73-3.03 186.19-10.55 196.42-10.55 199.08-3.15 194.91-1.81 194.61 0 207.19 0 207.41-1.95 204.06-3.03 194.54-30.96 190.85-30.2 180.43-3.15 176.79-1.81 176.57 0ZM187.12-13.04L191.66-25.24 195.71-13.04 187.12-13.04ZM221.61 0Q227.62 0 231.82-2.19 236.02-4.37 238.13-8 240.24-11.62 240.24-15.94L240.24-15.94Q240.24-20.04 238.61-23.34 236.97-26.64 233.05-28.67 229.13-30.71 222.64-30.71L222.64-30.71Q217.71-30.71 210.11-29.52L210.11-29.52 209.89-27.66 214.09-26.93 214.09-3.15 209.89-1.81 209.55 0 221.61 0ZM218.76-28.1Q219.73-28.2 221.74-28.2L221.74-28.2Q226.08-28.2 229.08-26.4 232.09-24.61 233.59-21.52 235.09-18.43 235.09-14.6L235.09-14.6Q235.09-11.23 233.66-8.5 232.23-5.76 229.35-4.15 226.47-2.54 222.3-2.54L222.3-2.54 218.76-2.54 218.76-28.1ZM250.61 0.59Q253.42 0.59 255.92-0.57 258.43-1.73 259.95-3.86 261.48-5.98 261.48-8.72L261.48-8.72Q261.48-10.67 260.48-12.11 259.48-13.55 258.04-14.54 256.6-15.53 254.15-16.82L254.15-16.82Q251.81-18.09 250.46-18.99 249.1-19.9 248.16-21.22 247.22-22.53 247.22-24.29L247.22-24.29Q247.22-26.59 248.47-27.76 249.71-28.93 251.66-28.93L251.66-28.93Q252.57-28.93 253.45-28.55 254.33-28.17 254.95-27.62 255.57-27.08 255.81-26.61L255.81-26.61 256.43-21.95 258.84-21.66Q258.92-22.71 259.11-25.05 259.31-27.39 259.38-28.54L259.38-28.54Q256.45-30.98 252.49-30.98L252.49-30.98Q250.03-30.98 247.86-29.96 245.68-28.93 244.34-26.98 243-25.02 243-22.36L243-22.36Q243-20.07 244.11-18.38 245.22-16.7 246.79-15.61 248.37-14.53 250.93-13.16L250.93-13.16Q253.01-12.04 254.19-11.25 255.38-10.47 256.18-9.41 256.99-8.35 256.99-7.01L256.99-7.01Q256.99-5.3 256.12-4.15 255.25-3 253.92-2.44 252.59-1.88 251.2-1.88L251.2-1.88Q249.59-1.88 248.23-2.59 246.88-3.3 246.17-4.32L246.17-4.32 245.22-8.91 242.73-9.25 242.41-2.25Q243.66-1.03 245.87-0.22 248.08 0.59 250.61 0.59L250.61 0.59Z" fill="#d29000" data-fill-palette-color="primary"></path></g></svg></g></svg></g></svg></g></svg></g><g><svg viewBox="0 0 112.25679948114416 112.25679948114416" height="112.25679948114416" width="112.25679948114416"><g><svg></svg></g><g id="icon-0"><svg viewBox="0 0 112.25679948114416 112.25679948114416" height="112.25679948114416" width="112.25679948114416"><g><path d="M0 56.128c0-30.999 25.13-56.128 56.128-56.128 30.999 0 56.128 25.13 56.129 56.128 0 30.999-25.13 56.128-56.129 56.129-30.999 0-56.128-25.13-56.128-56.129zM56.128 107.931c28.61 0 51.803-23.193 51.803-51.803 0-28.61-23.193-51.803-51.803-51.803-28.61 0-51.803 23.193-51.803 51.803 0 28.61 23.193 51.803 51.803 51.803z" data-fill-palette-color="accent" fill="#d29000" stroke="transparent"></path><ellipse rx="55.567115743166354" ry="55.567115743166354" cx="56.12839974057208" cy="56.12839974057208" fill="#d29000" stroke="transparent" stroke-width="0" fill-opacity="1" data-fill-palette-color="accent"></ellipse></g><g transform="matrix(1,0,0,1,23.93777770775747,28.279591872319934)"><svg viewBox="0 0 64.38124406562922 55.69761573650429" height="55.69761573650429" width="64.38124406562922"><g><svg xmlns="http://www.w3.org/2000/svg" xmlns:xlink="http://www.w3.org/1999/xlink" version="1.0" x="0" y="0" viewBox="5.185000000000001 11.229999999999999 89.62900114909311 77.54" enable-background="new 0 0 100 100" xml:space="preserve" height="55.69761573650429" width="64.38124406562922" class="icon-cg-0" data-fill-palette-color="quaternary" id="cg-0"><g fill="#ffffff" data-fill-palette-color="quaternary"><path fill="none" d="M89.354 77.49c0 2.713-1.854 5.215-4.511 6.083-0.021 0.009-0.041 0.015-0.063 0.019l-0.617 0.152c-0.028 0.008-0.058 0.012-0.086 0.017l-21.545 3.167h25.883c2.521 0 4.572-2.051 4.572-4.574V25.648c0-2.2-1.561-4.04-3.633-4.475 0 0.002 0 0.002 0 0.004V77.49z"></path><path fill="none" d="M15.789 83.744l-0.617-0.15c-0.021-0.006-0.043-0.012-0.064-0.02-2.636-0.861-4.408-3.308-4.408-6.082V21.619c-0.031-0.097-0.052-0.199-0.052-0.305 0-0.048 0.007-0.094 0.009-0.143-2.076 0.434-3.641 2.274-3.641 4.478v56.704c0 2.523 2.053 4.574 4.572 4.574h25.833l-21.546-3.166C15.846 83.758 15.818 83.752 15.789 83.744z"></path><path fill="#ffffff" d="M88.91 19.271c-0.606-1.792-1.982-3.235-3.736-3.92-0.725-2.384-2.963-4.121-5.607-4.121-0.029 0-0.057 0-0.085 0.002l-0.968 0.088c-0.061 0.003-0.116 0.017-0.172 0.032l-14.18 4.105v-0.162c0-0.504-0.409-0.914-0.914-0.914-0.504 0-0.914 0.41-0.914 0.914v0.692l-11.256 3.259h-2.246l-27.264-7.894c-0.057-0.017-0.113-0.029-0.172-0.032l-0.97-0.088c-0.026-0.002-0.058-0.002-0.082-0.002-2.646 0-4.886 1.739-5.606 4.121-1.764 0.686-3.146 2.125-3.754 3.925-3.248 0.306-5.799 3.046-5.799 6.373v56.704c0 3.532 2.871 6.402 6.401 6.402h38.256c0.028 0.005 0.054 0.015 0.079 0.015h0.104c0.006 0 0.01 0 0.014 0 0.023 0 0.049-0.01 0.076-0.015h38.297c3.531 0 6.402-2.87 6.402-6.402V25.648C94.816 22.287 92.207 19.525 88.91 19.271zM12.974 19.246c0.36-0.709 0.903-1.312 1.565-1.748v1.748 1.83 53.65c0 2.506 1.621 4.71 4.033 5.486 0.021 0.008 0.043 0.014 0.063 0.019l18.495 4.806-20.946-3.08-0.541-0.133c-1.864-0.623-3.116-2.361-3.116-4.335V21.179c0-0.037-0.011-0.067-0.015-0.103-0.006-0.051-0.008-0.103-0.021-0.149C12.543 20.328 12.713 19.758 12.974 19.246zM11.588 86.928c-2.521 0-4.572-2.051-4.572-4.574V25.648c0-2.202 1.562-4.044 3.641-4.477-0.002 0.048-0.009 0.094-0.009 0.142 0 0.104 0.021 0.208 0.052 0.304v55.872c0 2.776 1.772 5.224 4.408 6.083 0.021 0.008 0.043 0.014 0.064 0.02l0.617 0.15c0.027 0.008 0.057 0.014 0.086 0.018l21.546 3.168H11.588zM49.392 21.405v64.927l-29.769-7.744-0.521-0.127c-1.638-0.541-2.734-2.037-2.734-3.735V21.076v-1.83-2.365c0-0.027-0.01-0.055-0.011-0.082-0.005-0.051-0.006-0.103-0.021-0.152 0.023-0.273 0.082-0.538 0.16-0.792 0.104-0.333 0.248-0.647 0.434-0.937 0.705-1.105 1.952-1.848 3.375-1.86l0.839 0.077 16.054 4.648 5.06 1.463 1.36 0.394 4.957 1.435 0.816 0.237L49.392 21.405 49.392 21.405zM85.511 74.727v-53.65-1.83-1.643c0.592 0.424 1.078 0.988 1.412 1.643 0.282 0.556 0.452 1.174 0.485 1.83 0.006 0.079 0.014 0.158 0.014 0.238 0 0.15 0.037 0.294 0.104 0.421V77.49c0 1.922-1.322 3.7-3.22 4.336l-0.54 0.131-20.967 3.084 17.967-4.674 0.555-0.135c0.021-0.005 0.043-0.011 0.064-0.02C83.814 79.431 85.511 77.174 85.511 74.727zM65.992 21.698c4.035 0 7.315 3.283 7.315 7.317 0 4.035-3.28 7.318-7.315 7.318s-7.316-3.283-7.316-7.318C58.676 24.981 61.957 21.698 65.992 21.698zM50.611 21.391v-0.104l0.727-0.211 4.967-1.438 1.352-0.393 4.68-1.354v0.869 0.486 0.436 0.957c-0.297 0.13-0.584 0.277-0.863 0.438-2.758 1.575-4.624 4.543-4.624 7.939 0 3.742 2.263 6.961 5.487 8.375v5.197c-3.227 1.414-5.487 4.634-5.487 8.377 0 3.742 2.263 6.963 5.487 8.378v5.341c0 0.505 0.41 0.914 0.914 0.914 0.505 0 0.914-0.409 0.914-0.914v-4.758c0.592 0.121 1.203 0.184 1.83 0.184 5.043 0 9.146-4.102 9.146-9.145 0-5.045-4.103-9.146-9.146-9.146-0.627 0-1.238 0.062-1.83 0.184v-4.026c0.592 0.122 1.203 0.187 1.83 0.187 5.043 0 9.146-4.104 9.146-9.146 0-3.396-1.864-6.365-4.625-7.939-1.334-0.763-2.875-1.207-4.521-1.207-0.627 0-1.238 0.065-1.83 0.187v-0.642-0.168-0.754V17.57v-0.207l14.604-4.228 0.839-0.077c1.423 0.013 2.665 0.755 3.371 1.861 0.185 0.289 0.335 0.603 0.438 0.938 0.094 0.303 0.147 0.619 0.164 0.949 0.005 0.064 0.011 0.128 0.011 0.195 0 0.143 0.032 0.278 0.092 0.402v1.842 1.83 53.65c0 1.654-1.16 3.188-2.827 3.736l-30.242 7.858V21.391H50.611zM65.992 43.648c4.035 0 7.315 3.283 7.315 7.316 0 4.035-3.28 7.315-7.315 7.315s-7.316-3.28-7.316-7.315C58.676 46.932 61.957 43.648 65.992 43.648zM92.986 82.354c0 2.523-2.051 4.574-4.572 4.574H62.531l21.545-3.166c0.028-0.004 0.058-0.01 0.086-0.018l0.617-0.15c0.022-0.006 0.043-0.012 0.063-0.02 2.655-0.869 4.511-3.371 4.511-6.082V21.179c0-0.002 0-0.002 0-0.005 2.072 0.436 3.633 2.274 3.633 4.476V82.354z" data-fill-palette-color="quaternary"></path><path fill="#ffffff" d="M68.418 34.068c-0.1-0.613-0.664-1.045-1.309-0.941-0.617 0.104-1.037 0.69-0.937 1.307 0.091 0.555 0.562 0.955 1.122 0.955 0.061 0 0.121-0.004 0.185-0.016C68.097 35.273 68.519 34.687 68.418 34.068z" data-fill-palette-color="quaternary"></path><path fill="#ffffff" d="M64.914 33.773c-1.6-0.361-2.898-1.493-3.482-3.025-0.118-0.314-0.475-0.474-0.785-0.354-0.314 0.119-0.474 0.47-0.354 0.786 0.728 1.917 2.354 3.331 4.354 3.782 0.047 0.012 0.092 0.014 0.135 0.014 0.279 0 0.53-0.191 0.596-0.475C65.449 34.174 65.242 33.849 64.914 33.773z" data-fill-palette-color="quaternary"></path><path fill="#ffffff" d="M68.418 56.19c-0.102-0.614-0.676-1.041-1.309-0.938-0.617 0.103-1.037 0.688-0.937 1.306 0.09 0.553 0.562 0.955 1.122 0.955 0.061 0 0.121-0.007 0.185-0.017C68.097 57.396 68.519 56.811 68.418 56.19z" data-fill-palette-color="quaternary"></path><path fill="#ffffff" d="M60.291 53.306c0.729 1.917 2.355 3.331 4.354 3.782 0.046 0.01 0.091 0.015 0.136 0.015 0.278 0 0.529-0.192 0.594-0.476 0.074-0.328-0.131-0.657-0.461-0.729-1.598-0.36-2.897-1.492-3.481-3.024-0.118-0.315-0.476-0.475-0.785-0.354C60.332 52.638 60.173 52.99 60.291 53.306z" data-fill-palette-color="quaternary"></path><path fill="#ffffff" d="M22.203 24.11l22.287 6.453c0.058 0.017 0.113 0.022 0.17 0.022 0.266 0 0.51-0.174 0.586-0.439 0.094-0.323-0.094-0.662-0.416-0.756l-22.286-6.452c-0.325-0.09-0.661 0.093-0.755 0.417C21.695 23.679 21.882 24.018 22.203 24.11z" data-fill-palette-color="quaternary"></path><path fill="#ffffff" d="M44.83 35.248l-22.286-6.451c-0.325-0.094-0.661 0.092-0.755 0.414-0.094 0.324 0.093 0.662 0.414 0.756L44.49 36.42c0.058 0.016 0.113 0.025 0.17 0.025 0.266 0 0.51-0.174 0.586-0.441C45.34 35.679 45.154 35.34 44.83 35.248z" data-fill-palette-color="quaternary"></path><path fill="#ffffff" d="M44.83 40.744l-22.286-6.453c-0.325-0.092-0.661 0.095-0.755 0.416-0.094 0.324 0.093 0.662 0.414 0.758l22.287 6.451c0.058 0.017 0.113 0.024 0.17 0.024 0.266 0 0.51-0.174 0.586-0.442C45.34 41.178 45.154 40.838 44.83 40.744z" data-fill-palette-color="quaternary"></path><path fill="#ffffff" d="M44.83 45.898l-22.286-6.453c-0.325-0.092-0.661 0.094-0.755 0.417s0.093 0.66 0.414 0.757L44.49 47.07c0.058 0.016 0.113 0.023 0.17 0.023 0.266 0 0.51-0.174 0.586-0.44C45.34 46.332 45.154 45.992 44.83 45.898z" data-fill-palette-color="quaternary"></path><path fill="#ffffff" d="M44.83 51.395l-22.286-6.452c-0.325-0.09-0.661 0.095-0.755 0.417-0.094 0.325 0.093 0.662 0.414 0.755l22.287 6.453c0.058 0.017 0.113 0.022 0.17 0.022 0.266 0 0.51-0.172 0.586-0.439C45.34 51.83 45.154 51.49 44.83 51.395z" data-fill-palette-color="quaternary"></path><path fill="#ffffff" d="M44.83 56.965l-22.286-6.452c-0.325-0.093-0.661 0.092-0.755 0.417-0.094 0.32 0.093 0.66 0.414 0.754l22.287 6.453c0.058 0.015 0.113 0.023 0.17 0.023 0.266 0 0.51-0.173 0.586-0.438C45.34 57.396 45.154 57.06 44.83 56.965z" data-fill-palette-color="quaternary"></path><path fill="#ffffff" d="M44.83 62.461l-22.286-6.453c-0.325-0.092-0.661 0.095-0.755 0.418-0.094 0.322 0.093 0.662 0.414 0.755l22.287 6.45c0.058 0.017 0.113 0.025 0.17 0.025 0.266 0 0.51-0.174 0.586-0.439C45.34 62.894 45.154 62.556 44.83 62.461z" data-fill-palette-color="quaternary"></path><path fill="#ffffff" d="M44.83 67.615l-22.286-6.451c-0.325-0.092-0.661 0.092-0.755 0.414-0.094 0.325 0.093 0.664 0.414 0.756l22.287 6.451c0.058 0.018 0.113 0.024 0.17 0.024 0.266 0 0.51-0.172 0.586-0.438C45.34 68.047 45.154 67.709 44.83 67.615z" data-fill-palette-color="quaternary"></path><path fill="#ffffff" d="M44.83 73.111L22.544 66.66c-0.325-0.092-0.661 0.092-0.755 0.416-0.094 0.322 0.093 0.663 0.414 0.758l22.287 6.451c0.058 0.014 0.113 0.024 0.17 0.024 0.266 0 0.51-0.174 0.586-0.44C45.34 73.543 45.154 73.205 44.83 73.111z" data-fill-palette-color="quaternary"></path></g></svg></g></svg></g></svg></g></svg></g></svg></g><defs></defs></svg><rect width="395.52" height="83.7063839978572" fill="none" stroke="none" visibility="hidden"></rect></g></svg></g></svg>